<?xml version="1.0" encoding="utf-8"?>
<!-- Generator: Adobe Illustrator 16.0.0, SVG Export Plug-In . SVG Version: 6.00 Build 0)  -->
<!DOCTYPE svg PUBLIC "-//W3C//DTD SVG 1.1//EN" "http://www.w3.org/Graphics/SVG/1.1/DTD/svg11.dtd">
<svg version="1.1" xmlns="http://www.w3.org/2000/svg" xmlns:xlink="http://www.w3.org/1999/xlink" x="0px" y="0px" width="288px"
	 height="311.837px" viewBox="0 0 288 311.837" enable-background="new 0 0 288 311.837" xml:space="preserve">
<g id="_x33_1">
	<g>
		<g>
			<!--<path fill="#E2E0E0" d="M236.885,281H58.604l29.425-66h115.174L236.885,281z M80.742,266h132.664l-18.897-36H97.248L80.742,266z"
				/>-->
		</g>
		<path fill-rule="evenodd" clip-rule="evenodd" fill="#16A568" d="M231.688,117.806c0,45.576-84.425,122.163-84.425,122.163
			S62.85,163.382,62.85,117.806c0-45.581,37.646-82.44,84.414-82.44C193.633,35.365,231.688,72.225,231.688,117.806L231.688,117.806
			z"/>
		<path fill-rule="evenodd" clip-rule="evenodd" fill="#087E4E" d="M146.339,35.383c46.409,0.404,83.646,37.093,83.646,82.422
			c0,43.043-75.274,113.731-83.646,121.46V35.383z"/>
		<circle fill-rule="evenodd" clip-rule="evenodd" fill="#83BEA7" cx="147.297" cy="116.322" r="65.449"/>
		<circle fill-rule="evenodd" clip-rule="evenodd" fill="#FFFFFF" cx="147.297" cy="116.322" r="52.799"/>
		<g>
			<g>
				<path fill-rule="evenodd" clip-rule="evenodd" fill="#1D1D1B" d="M179.458,93h-1.997c-0.189,0-0.461,0.288-0.461,0.333v-2.389
					c0-4.434-4.602-6.944-9.113-6.944h-42.889c-4.512,0-7.998,2.511-7.998,6.944v2.58c-1-0.167-1.096-0.524-1.472-0.524h-1.997
					c-1.105,0-1.531,1.073-1.531,2.177v11.987c0,1.104,0.426,2.836,1.531,2.836h1.997c0.376,0,0.472-0.917,1.472-1.101v26.196
					c0,4.434,3.486,8.904,7.998,8.904h42.889c4.512,0,9.113-4.471,9.113-8.904V109.11c0,0.051,0.271,0.89,0.461,0.89h1.997
					c1.104,0,2.542-1.732,2.542-2.836V95.177C182,94.073,180.563,93,179.458,93z M125.581,137.711c-2.21,0-4.003-1.793-4.003-4.004
					c0-2.212,1.793-4.005,4.003-4.005c2.212,0,4.006,1.793,4.006,4.005C129.587,135.918,127.793,137.711,125.581,137.711z
					 M167.535,137.711c-2.211,0-4.004-1.793-4.004-4.004c0-2.212,1.793-4.005,4.004-4.005c2.212,0,4.004,1.793,4.004,4.005
					C171.539,135.918,169.747,137.711,167.535,137.711z"/>
				<path fill-rule="evenodd" clip-rule="evenodd" fill="#1D1D1B" d="M123,147.927c0,1.313,1.274,3.073,2.587,3.073h4.474
					c1.313,0,2.939-1.761,2.939-3.073V144h-10V147.927z"/>
				<path fill-rule="evenodd" clip-rule="evenodd" fill="#1D1D1B" d="M161,147.927c0,1.313,1.026,3.073,2.339,3.073h4.473
					c1.313,0,3.188-1.761,3.188-3.073V144h-10V147.927z"/>
			</g>
			<path fill-rule="evenodd" clip-rule="evenodd" fill="#FFFFFF" d="M172,116.846c0,2.376-2.391,4.154-4.598,4.154h-41.953
				c-2.207,0-3.449-1.778-3.449-4.154V97.482c0-2.377,1.242-4.482,3.449-4.482h41.953c2.207,0,4.598,2.105,4.598,4.482V116.846z"/>
			<path fill-rule="evenodd" clip-rule="evenodd" fill="#FFFFFF" d="M154,88.003c0,1.103-0.894,1.997-1.997,1.997h-12.006
				c-1.103,0-1.997-0.894-1.997-1.997v-0.006c0-1.103,0.894-1.997,1.997-1.997h12.006c1.103,0,1.997,0.894,1.997,1.997V88.003z"/>
			<rect x="145" y="93" fill-rule="evenodd" clip-rule="evenodd" fill="#1D1D1B" width="3" height="28"/>
		</g>
	</g>
</g>
<g id="Layer_1">
</g>
</svg>
